<svg width="93" height="93" viewBox="0 0 93 93" fill="none" xmlns="http://www.w3.org/2000/svg">
<g clip-path="url(#clip0)">
<path d="M79.7194 49.1123H72.6045C73.3297 51.0979 73.7259 53.2406 73.7259 55.474V82.3643C73.7259 83.2954 73.5638 84.1892 73.269 85.0204H85.0315C89.4254 85.0204 93 81.4457 93 77.052V62.3929C93.0001 55.07 87.0424 49.1123 79.7194 49.1123Z" fill="#625C5C"/>
<path d="M20.2742 55.474C20.2742 53.2405 20.6704 51.0979 21.3956 49.1123H14.2807C6.95773 49.1123 1 55.07 1 62.393V77.0522C1 81.4459 4.57453 85.0206 8.96844 85.0206H20.7312C20.4363 84.189 20.2742 83.2954 20.2742 82.3643V55.474Z" fill="#625C5C"/>
<path d="M55.1329 42.1934H38.8672C31.5442 42.1934 25.5864 48.1511 25.5864 55.4741V82.3644C25.5864 83.8312 26.7756 85.0205 28.2426 85.0205H65.7575C67.2244 85.0205 68.4136 83.8314 68.4136 82.3644V55.4741C68.4136 48.1511 62.4559 42.1934 55.1329 42.1934Z" fill="#625C5C"/>
<path d="M47.0001 6.97949C38.1932 6.97949 31.0283 14.1444 31.0283 22.9514C31.0283 28.9251 34.3254 34.1424 39.1946 36.8815C41.5041 38.1807 44.1667 38.9231 47.0001 38.9231C49.8334 38.9231 52.496 38.1807 54.8055 36.8815C59.6749 34.1424 62.9718 28.9249 62.9718 22.9514C62.9718 14.1445 55.8069 6.97949 47.0001 6.97949Z" fill="#625C5C"/>
<path d="M18.954 21.8662C12.3676 21.8662 7.00928 27.2245 7.00928 33.811C7.00928 40.3974 12.3676 45.7557 18.954 45.7557C20.6248 45.7557 22.2157 45.4096 23.6609 44.7876C26.1597 43.7118 28.22 41.8074 29.4949 39.4221C30.3897 37.7479 30.8988 35.838 30.8988 33.811C30.8988 27.2247 25.5405 21.8662 18.954 21.8662Z" fill="#625C5C"/>
<path d="M75.0461 21.8662C68.4596 21.8662 63.1013 27.2245 63.1013 33.811C63.1013 35.8382 63.6104 37.7481 64.5052 39.4221C65.7801 41.8076 67.8404 43.7119 70.3391 44.7876C71.7844 45.4096 73.3753 45.7557 75.0461 45.7557C81.6325 45.7557 86.9908 40.3974 86.9908 33.811C86.9908 27.2245 81.6325 21.8662 75.0461 21.8662Z" fill="#625C5C"/>
</g>
<defs>
<clipPath id="clip0">
<rect width="92" height="92" fill="white" transform="translate(1)"/>
</clipPath>
</defs>
</svg>
