<svg width="93" height="93" viewBox="0 0 93 93" fill="none" xmlns="http://www.w3.org/2000/svg">
<g clip-path="url(#clip0)">
<g clip-path="url(#clip1)">
<path d="M25.1041 10.8158C25.1041 10.0286 24.7609 9.2809 24.1623 8.76861L14.6887 0.648357C13.6804 -0.216119 12.1905 -0.216119 11.1803 0.648357L1.70859 8.76861C1.11185 9.2809 0.766846 10.0286 0.766846 10.8158V13.5532H25.1041V10.8158Z" fill="#625C5C"/>
<path d="M31.8708 21.6404C31.8708 20.1522 30.6629 18.9443 29.1747 18.9443H15.6302V40.5749H18.359V46.0089H7.51268V40.5749H10.2385V18.9443H-3.30397C-4.79214 18.9443 -6 20.1522 -6 21.6404V37.8789C-6 39.3689 -4.79214 40.5749 -3.30397 40.5749H2.1208V89.3035C2.1208 90.7924 3.32776 91.9995 4.81683 91.9995C6.3059 91.9995 7.51286 90.7925 7.51286 89.3035V83.8789H18.3595V89.3035C18.3595 90.7924 19.5665 91.9995 21.0555 91.9995C22.5444 91.9995 23.7516 90.7925 23.7516 89.3035V40.5749H29.1753C30.6496 40.5749 31.8713 39.3861 31.8713 37.8699H58.9565V21.6511C30.5555 21.6511 31.8708 21.6583 31.8708 21.6404ZM18.3593 78.4872H7.51268V73.0531H18.3593V78.4872ZM18.3593 67.661H7.51268V62.2267H18.3593V67.661ZM18.3593 56.835H7.51268V51.4007H18.3593V56.835Z" fill="#625C5C"/>
<path d="M30.7046 67.6631H47.4752C48.4115 66.0348 50.1694 64.9347 52.1787 64.9347H58.9563V48.7178H52.1787C41.1575 48.7178 32.0364 56.9978 30.7046 67.6631Z" fill="#625C5C"/>
<path d="M47.4698 73.0547H30.7046C32.0364 83.7199 41.1577 92 52.1787 92H58.9563V75.7831H52.1787C50.1653 75.7829 48.4025 74.6852 47.4698 73.0547Z" fill="#625C5C"/>
<path d="M85.8327 45.9893H69.0621C68.1276 47.6176 66.3681 48.7176 64.3586 48.7176C64.3407 48.7176 64.3479 64.9346 64.3479 64.9346C75.3605 64.9346 84.5002 56.6753 85.8327 45.9893Z" fill="#625C5C"/>
<path d="M69.0621 40.597H85.8327C84.5027 29.9318 75.3778 21.6516 64.3586 21.6516C64.3407 21.6516 64.3479 20.8412 64.3479 37.8704C66.3819 37.8704 68.131 38.9778 69.0621 40.597Z" fill="#625C5C"/>
<path d="M83.3039 75.7822H64.3479V91.9992H83.304C84.7922 91.9992 86.0001 90.7913 86.0001 89.3032V78.4781C85.9999 76.9854 84.7874 75.7822 83.3039 75.7822Z" fill="#625C5C"/>
</g>
</g>
<defs>
<clipPath id="clip0">
<rect width="93" height="93" fill="white"/>
</clipPath>
<clipPath id="clip1">
<rect width="92" height="92" fill="white" transform="translate(-6)"/>
</clipPath>
</defs>
</svg>
