<svg width="74" height="74" viewBox="0 0 74 74" fill="none" xmlns="http://www.w3.org/2000/svg">
<g clip-path="url(#clip0)">
<g clip-path="url(#clip1)">
<path d="M4.35939 46.7012C1.27755 46.7012 -1.3347 48.7479 -2.19116 51.5534H10.9099C10.0535 48.7479 7.4414 46.7012 4.35939 46.7012Z" fill="#625C5C"/>
<path d="M24.2925 41.0054H32.0055V51.5531H45.1764V1.31709C45.1764 0.589529 44.5869 0 43.8593 0H33.3226C32.5952 0 32.0055 0.589529 32.0055 1.31709V25.2003H24.2925V1.31709C24.2925 0.589529 23.7028 0 22.9754 0H12.4387C11.7113 0 11.1216 0.589529 11.1216 1.31709V51.5531H24.2925V41.0054Z" fill="#625C5C"/>
<path d="M80.9143 51.5532C81.0168 51.5532 81.1175 51.5605 81.217 51.5719C81.9474 49.8362 82.3522 47.931 82.3522 45.9327C82.3522 45.2894 82.309 44.6376 82.2236 43.9954C82.0498 42.686 80.9331 41.708 79.6125 41.708H55.92C54.5992 41.708 53.4827 42.686 53.3088 43.9954C53.2236 44.6367 53.1804 45.2886 53.1804 45.9327C53.1804 47.9238 53.5826 49.8225 54.3082 51.5532H80.9143Z" fill="#625C5C"/>
<path d="M80.9142 56.7539H60.1711V72.9462H76.5366C77.9914 72.9462 79.1708 71.7668 79.1708 70.312V62.0223H80.9142C82.369 62.0223 83.5484 60.8429 83.5484 59.3881C83.5484 57.9333 82.3692 56.7539 80.9142 56.7539Z" fill="#625C5C"/>
<path d="M22.1477 56.7539H35.8886V72.9463H22.1477V56.7539Z" fill="#625C5C"/>
<path d="M41.1567 56.7539H54.9032V72.9463H41.1567V56.7539Z" fill="#625C5C"/>
<path d="M-6.36548 59.3881C-6.36548 60.8429 -5.18607 62.0223 -3.7313 62.0223H-2.13358V70.312C-2.13358 71.7668 -0.954175 72.9462 0.500594 72.9462H16.8792V56.7539H-3.7313C-5.18607 56.7539 -6.36548 57.9333 -6.36548 59.3881Z" fill="#625C5C"/>
</g>
</g>
<defs>
<clipPath id="clip0">
<rect width="74" height="74" fill="white"/>
</clipPath>
<clipPath id="clip1">
<rect width="89.914" height="89.914" fill="white" transform="translate(-6.36548)"/>
</clipPath>
</defs>
</svg>
