<svg width="93" height="93" viewBox="0 0 93 93" fill="none" xmlns="http://www.w3.org/2000/svg">
<path d="M58.125 18.1641H34.875C34.2969 18.1641 33.7425 18.3937 33.3337 18.8025C32.925 19.2112 32.6953 19.7657 32.6953 20.3438V57.3984H41.4141V46.5C41.4141 45.9219 41.6437 45.3675 42.0525 44.9587C42.4613 44.55 43.0157 44.3203 43.5938 44.3203H49.4062C49.9843 44.3203 50.5388 44.55 50.9475 44.9587C51.3563 45.3675 51.5859 45.9219 51.5859 46.5V57.3984H60.3047V20.3438C60.3047 19.7657 60.075 19.2112 59.6663 18.8025C59.2575 18.3937 58.7031 18.1641 58.125 18.1641ZM39.9609 37.7812C39.9609 38.3593 39.7313 38.9137 39.3225 39.3225C38.9138 39.7313 38.3593 39.9609 37.7812 39.9609C37.2032 39.9609 36.6488 39.7313 36.24 39.3225C35.8312 38.9137 35.6016 38.3593 35.6016 37.7812V34.875C35.6016 34.2969 35.8312 33.7425 36.24 33.3337C36.6488 32.925 37.2032 32.6953 37.7812 32.6953C38.3593 32.6953 38.9138 32.925 39.3225 33.3337C39.7313 33.7425 39.9609 34.2969 39.9609 34.875V37.7812ZM39.9609 26.1562C39.9609 26.7343 39.7313 27.2887 39.3225 27.6975C38.9138 28.1063 38.3593 28.3359 37.7812 28.3359C37.2032 28.3359 36.6488 28.1063 36.24 27.6975C35.8312 27.2887 35.6016 26.7343 35.6016 26.1562V23.25C35.6016 22.6719 35.8312 22.1175 36.24 21.7087C36.6488 21.3 37.2032 21.0703 37.7812 21.0703C38.3593 21.0703 38.9138 21.3 39.3225 21.7087C39.7313 22.1175 39.9609 22.6719 39.9609 23.25V26.1562ZM48.6797 37.7812C48.6797 38.3593 48.45 38.9137 48.0413 39.3225C47.6325 39.7313 47.0781 39.9609 46.5 39.9609C45.9219 39.9609 45.3675 39.7313 44.9587 39.3225C44.55 38.9137 44.3203 38.3593 44.3203 37.7812V34.875C44.3203 34.2969 44.55 33.7425 44.9587 33.3337C45.3675 32.925 45.9219 32.6953 46.5 32.6953C47.0781 32.6953 47.6325 32.925 48.0413 33.3337C48.45 33.7425 48.6797 34.2969 48.6797 34.875V37.7812ZM48.6797 26.1562C48.6797 26.7343 48.45 27.2887 48.0413 27.6975C47.6325 28.1063 47.0781 28.3359 46.5 28.3359C45.9219 28.3359 45.3675 28.1063 44.9587 27.6975C44.55 27.2887 44.3203 26.7343 44.3203 26.1562V23.25C44.3203 22.6719 44.55 22.1175 44.9587 21.7087C45.3675 21.3 45.9219 21.0703 46.5 21.0703C47.0781 21.0703 47.6325 21.3 48.0413 21.7087C48.45 22.1175 48.6797 22.6719 48.6797 23.25V26.1562ZM57.3984 37.7812C57.3984 38.3593 57.1688 38.9137 56.76 39.3225C56.3513 39.7313 55.7968 39.9609 55.2188 39.9609C54.6407 39.9609 54.0862 39.7313 53.6775 39.3225C53.2687 38.9137 53.0391 38.3593 53.0391 37.7812V34.875C53.0391 34.2969 53.2687 33.7425 53.6775 33.3337C54.0862 32.925 54.6407 32.6953 55.2188 32.6953C55.7968 32.6953 56.3513 32.925 56.76 33.3337C57.1688 33.7425 57.3984 34.2969 57.3984 34.875V37.7812ZM57.3984 26.1562C57.3984 26.7343 57.1688 27.2887 56.76 27.6975C56.3513 28.1063 55.7968 28.3359 55.2188 28.3359C54.6407 28.3359 54.0862 28.1063 53.6775 27.6975C53.2687 27.2887 53.0391 26.7343 53.0391 26.1562V23.25C53.0391 22.6719 53.2687 22.1175 53.6775 21.7087C54.0862 21.3 54.6407 21.0703 55.2188 21.0703C55.7968 21.0703 56.3513 21.3 56.76 21.7087C57.1688 22.1175 57.3984 22.6719 57.3984 23.25V26.1562Z" fill="#625C5C"/>
<path d="M46.5 0.726562C26.068 0.726562 9.44531 17.3492 9.44531 37.7812C9.44531 44.1091 11.3649 50.9166 15.151 58.016C18.1246 63.5915 22.257 69.3713 27.4334 75.1949C36.1972 85.0534 44.8289 91.565 45.1922 91.8375C45.5695 92.1205 46.0284 92.2734 46.5 92.2734C46.9716 92.2734 47.4305 92.1205 47.8078 91.8375C48.1711 91.565 56.8028 85.0534 65.5666 75.1943C70.7434 69.3707 74.8754 63.5909 77.849 58.0155C81.6351 50.9166 83.5547 44.1091 83.5547 37.7812C83.5547 17.3492 66.932 0.726562 46.5 0.726562ZM46.5 66.8438C42.4687 66.8454 38.4813 66.0062 34.7926 64.3799C31.1039 62.7536 27.7949 60.3758 25.0769 57.3984H30.5156V38.5078H17.4468C17.4407 38.2656 17.4376 38.0234 17.4375 37.7812C17.4375 21.7562 30.4749 8.71875 46.5 8.71875C62.5251 8.71875 75.5625 21.7562 75.5625 37.7812C75.5625 38.024 75.5594 38.2662 75.5532 38.5078H62.4844V57.3984H67.9231C65.2051 60.3758 61.8961 62.7536 58.2074 64.3799C54.5187 66.0062 50.5313 66.8454 46.5 66.8438Z" fill="#625C5C"/>
</svg>
