<svg width="93" height="93" viewBox="0 0 93 93" fill="none" xmlns="http://www.w3.org/2000/svg">
<g clip-path="url(#clip0)">
<path d="M90.2742 87.551H87.368V33.7861C87.368 32.2814 86.1481 31.0615 84.6434 31.0615H73.7451C72.2404 31.0615 71.0205 32.2814 71.0205 33.7861V87.551H65.5714V51.9499C65.5714 50.4452 64.3515 49.2253 62.8468 49.2253H51.9485C50.4438 49.2253 49.2239 50.4452 49.2239 51.9499V87.551H43.7748V61.94C43.7748 60.4353 42.5549 59.2154 41.0502 59.2154H30.1519C28.6472 59.2154 27.4274 60.4353 27.4274 61.94V87.551H21.9782V68.479C21.9782 66.9743 20.7583 65.7544 19.2536 65.7544H8.35536C6.85066 65.7544 5.63078 66.9743 5.63078 68.479V87.551H2.72457C1.21988 87.551 0 88.7709 0 90.2756C0 91.7802 1.21988 93.0001 2.72457 93.0001H90.2742C91.7789 93.0001 92.9987 91.7802 92.9987 90.2756C92.9987 88.7709 91.7789 87.551 90.2742 87.551Z" fill="#625C5C"/>
<path d="M2.72457 58.5442C19.7292 58.5442 38.1694 52.4372 54.6487 41.348C67.555 32.663 78.3136 21.568 84.9965 10.2071L87.6426 20.0822C87.9688 21.2995 89.5438 22.3512 90.9795 22.0086C92.4431 21.6595 93.2953 20.1252 92.9059 18.6718L88.4443 2.02099C88.0547 0.567707 86.5615 -0.295073 85.1075 0.0945403L68.4567 4.55612C67.0032 4.94555 66.1408 6.43952 66.5302 7.89299C66.9198 9.34646 68.4131 10.2092 69.8671 9.81945L80.5938 6.9452C74.359 17.7792 64.0551 28.4501 51.6065 36.827C36.0168 47.3177 18.657 53.0951 2.72457 53.0951C1.21988 53.0951 0 54.315 0 55.8197C0 57.3244 1.21988 58.5442 2.72457 58.5442Z" fill="#625C5C"/>
</g>
<defs>
<clipPath id="clip0">
<rect width="93" height="93" fill="white"/>
</clipPath>
</defs>
</svg>
