<svg width="93" height="93" viewBox="0 0 93 93" fill="none" xmlns="http://www.w3.org/2000/svg">
<g clip-path="url(#clip0)">
<path d="M50.9483 7.16863L8.82 0.766958C6.865 0.460291 4.87167 0.996958 3.37667 2.26196C1.88167 3.56529 1 5.44363 1 7.39863V88.167C1 90.2753 2.725 92.0003 4.83333 92.0003H17.2917V71.8753C17.2917 68.157 20.2817 65.167 24 65.167H33.5833C37.3017 65.167 40.2917 68.157 40.2917 71.8753V92.0003H56.5833V13.8003C56.5833 10.5036 54.2067 7.70529 50.9483 7.16863ZM22.0833 56.542H16.3333C14.7463 56.542 13.4583 55.254 13.4583 53.667C13.4583 52.08 14.7463 50.792 16.3333 50.792H22.0833C23.6703 50.792 24.9583 52.08 24.9583 53.667C24.9583 55.254 23.6703 56.542 22.0833 56.542ZM22.0833 45.042H16.3333C14.7463 45.042 13.4583 43.754 13.4583 42.167C13.4583 40.58 14.7463 39.292 16.3333 39.292H22.0833C23.6703 39.292 24.9583 40.58 24.9583 42.167C24.9583 43.754 23.6703 45.042 22.0833 45.042ZM22.0833 33.542H16.3333C14.7463 33.542 13.4583 32.254 13.4583 30.667C13.4583 29.08 14.7463 27.792 16.3333 27.792H22.0833C23.6703 27.792 24.9583 29.08 24.9583 30.667C24.9583 32.254 23.6703 33.542 22.0833 33.542ZM22.0833 22.042H16.3333C14.7463 22.042 13.4583 20.754 13.4583 19.167C13.4583 17.58 14.7463 16.292 16.3333 16.292H22.0833C23.6703 16.292 24.9583 17.58 24.9583 19.167C24.9583 20.754 23.6703 22.042 22.0833 22.042ZM41.25 56.542H35.5C33.913 56.542 32.625 55.254 32.625 53.667C32.625 52.08 33.913 50.792 35.5 50.792H41.25C42.837 50.792 44.125 52.08 44.125 53.667C44.125 55.254 42.837 56.542 41.25 56.542ZM41.25 45.042H35.5C33.913 45.042 32.625 43.754 32.625 42.167C32.625 40.58 33.913 39.292 35.5 39.292H41.25C42.837 39.292 44.125 40.58 44.125 42.167C44.125 43.754 42.837 45.042 41.25 45.042ZM41.25 33.542H35.5C33.913 33.542 32.625 32.254 32.625 30.667C32.625 29.08 33.913 27.792 35.5 27.792H41.25C42.837 27.792 44.125 29.08 44.125 30.667C44.125 32.254 42.837 33.542 41.25 33.542ZM41.25 22.042H35.5C33.913 22.042 32.625 20.754 32.625 19.167C32.625 17.58 33.913 16.292 35.5 16.292H41.25C42.837 16.292 44.125 17.58 44.125 19.167C44.125 20.754 42.837 22.042 41.25 22.042Z" fill="#625C5C"/>
<path d="M87.7098 41.5612L60.4165 35.8457V92.0002H86.2915C89.9907 92.0002 92.9998 88.991 92.9998 85.2919V48.1162C92.9998 44.9499 90.8417 42.255 87.7098 41.5612ZM78.6248 80.5002H72.8748C71.2878 80.5002 69.9998 79.2122 69.9998 77.6252C69.9998 76.0382 71.2878 74.7502 72.8748 74.7502H78.6248C80.2118 74.7502 81.4998 76.0382 81.4998 77.6252C81.4998 79.2122 80.2118 80.5002 78.6248 80.5002ZM78.6248 69.0002H72.8748C71.2878 69.0002 69.9998 67.7122 69.9998 66.1252C69.9998 64.5382 71.2878 63.2502 72.8748 63.2502H78.6248C80.2118 63.2502 81.4998 64.5382 81.4998 66.1252C81.4998 67.7122 80.2118 69.0002 78.6248 69.0002ZM78.6248 57.5002H72.8748C71.2878 57.5002 69.9998 56.2122 69.9998 54.6252C69.9998 53.0382 71.2878 51.7502 72.8748 51.7502H78.6248C80.2118 51.7502 81.4998 53.0382 81.4998 54.6252C81.4998 56.2122 80.2118 57.5002 78.6248 57.5002Z" fill="#625C5C"/>
</g>
<defs>
<clipPath id="clip0">
<rect width="92" height="92" fill="white" transform="translate(1)"/>
</clipPath>
</defs>
</svg>
