<svg width="28" height="30" viewBox="0 0 28 30" fill="none" xmlns="http://www.w3.org/2000/svg">
<path d="M24.943 8.82857C24.8573 8.82857 24.6858 8.82857 24.6001 8.82857C23.4001 3.77143 18.943 0 13.543 0C8.22868 0 3.77155 3.77143 2.48583 8.82857C2.40012 8.82857 2.31441 8.82857 2.14298 8.82857C0.942979 8.82857 0.00012207 9.77143 0.00012207 10.9714V13.5429C0.00012207 14.7429 0.942979 15.6857 2.14298 15.6857C2.40012 15.6857 2.65726 15.6 2.9144 15.5143C3.5144 17.0571 5.05727 18.2571 6.85727 18.2571C7.37155 18.2571 7.71441 17.9143 7.71441 17.4C7.71441 16.8857 7.37155 16.5429 6.85727 16.5429C5.40012 16.5429 4.28584 15.4286 4.28584 13.9714V11.2286C4.45727 6.17143 8.48582 2.14286 13.4573 2.14286C18.5144 2.14286 22.7144 6.34285 22.7144 11.5714C22.7144 11.5714 22.7144 11.5714 22.7144 11.6571V13.5429C22.7144 14.7429 23.6573 15.6857 24.8573 15.6857C26.0573 15.6857 27.0001 14.7429 27.0001 13.5429V10.9714C27.0858 9.85714 26.143 8.82857 24.943 8.82857Z" fill="#EA0000"/>
<path d="M20.6572 20.8289H18.1715C17.5715 20.8289 17.0572 21.0861 16.8001 21.6003L15.0001 24.0861C14.3143 25.0289 12.8572 25.0289 12.1715 24.0861L10.4572 21.6003C10.1143 21.1718 9.60006 20.8289 9.00006 20.8289H6.51435C3.34292 20.8289 0.771484 23.4003 0.771484 26.5718V29.1432C0.771484 29.6575 1.11434 30.0003 1.62863 30.0003H25.5429C26.0572 30.0003 26.4001 29.6575 26.4001 29.1432V26.5718C26.4001 23.4003 23.8286 20.8289 20.6572 20.8289ZM13.6286 18.6861C17.5715 18.6861 20.6572 15.5146 20.6572 11.6575C20.6572 7.71462 17.4858 4.62891 13.6286 4.62891C9.68577 4.62891 6.60005 7.80034 6.60005 11.6575C6.51433 15.5146 9.68577 18.6861 13.6286 18.6861Z" fill="#EA0000"/>
</svg>
