<svg width="30" height="30" viewBox="0 0 30 30" fill="none" xmlns="http://www.w3.org/2000/svg">
<path d="M28.2779 21.379L24.5015 19.3456C23.5332 18.8614 22.8553 19.2487 22.0807 20.3139C20.3377 22.7347 19.4662 23.2188 17.3359 21.96C15.3025 20.7981 13.85 19.5392 12.107 17.6994C10.2672 15.8596 9.00838 14.504 7.8464 12.4705C6.68442 10.3402 7.16859 9.46874 9.49255 7.72576C10.5577 6.95111 10.945 6.17646 10.4609 5.30497L8.42739 1.52852C7.55591 -0.117621 6.39393 -0.311281 4.65096 0.366541C2.23017 1.1412 -0.0937859 4.72397 0.0030459 6.37011C0.390373 11.2117 2.81114 17.0216 7.8464 22.1537C12.8816 27.1889 18.7884 29.6097 23.63 29.9971C25.2761 30.0939 28.7621 27.7699 29.6336 25.3491C30.0209 23.4125 29.8272 22.2505 28.2779 21.379Z" fill="#EA0000"/>
<path d="M16.8516 6.75763C16.077 6.75763 15.3992 7.43545 15.3992 8.21011C15.3992 8.98476 16.077 9.66259 16.8516 9.66259C17.7231 9.66259 18.4978 9.95308 19.1756 10.6309C19.7566 11.2119 20.1439 12.0834 20.1439 12.9549C20.1439 13.7295 20.8217 14.4073 21.5964 14.4073C22.3711 14.4073 23.0489 13.7295 23.0489 12.9549C23.0489 11.3087 22.4679 9.75941 21.2091 8.59743C20.0471 7.43545 18.4978 6.75763 16.8516 6.75763ZM25.5665 4.24C23.2425 1.91604 20.1439 0.657227 16.9485 0.657227C16.1738 0.657227 15.496 1.33505 15.496 2.1097C15.496 2.88436 16.1738 3.56218 16.9485 3.56218C19.4661 3.56218 21.7901 4.5305 23.533 6.27347C25.276 8.01645 26.2443 10.3404 26.2443 12.858C26.2443 13.6327 26.9221 14.3105 27.6968 14.3105C28.4714 14.3105 29.1493 13.6327 29.1493 12.858C29.0524 9.66259 27.7936 6.56396 25.5665 4.24Z" fill="#EA0000"/>
</svg>
